<svg width="80" height="80" viewBox="0 0 80 80" fill="none" xmlns="http://www.w3.org/2000/svg">
<circle cx="40" cy="40" r="40" fill="#341950"/>
<path d="M27.32 26H40.04C43.08 26 45.76 26.5867 48.08 27.76C50.4267 28.9067 52.24 30.5333 53.52 32.64C54.8267 34.7467 55.48 37.2 55.48 40C55.48 42.8 54.8267 45.2533 53.52 47.36C52.24 49.4667 50.4267 51.1067 48.08 52.28C45.76 53.4267 43.08 54 40.04 54H27.32V26ZM39.72 48.68C42.52 48.68 44.7467 47.9067 46.4 46.36C48.08 44.7867 48.92 42.6667 48.92 40C48.92 37.3333 48.08 35.2267 46.4 33.68C44.7467 32.1067 42.52 31.32 39.72 31.32H33.8V48.68H39.72Z" fill="white"/>
</svg>
