<svg width="80" height="80" viewBox="0 0 80 80" fill="none" xmlns="http://www.w3.org/2000/svg">
<circle cx="40" cy="40" r="40" fill="#341950"/>
<path d="M47.88 39.44C49.48 39.9467 50.7333 40.8 51.64 42C52.5467 43.1733 53 44.6267 53 46.36C53 48.8133 52.04 50.7067 50.12 52.04C48.2267 53.3467 45.4533 54 41.8 54H27.32V26H41C44.4133 26 47.0267 26.6533 48.84 27.96C50.68 29.2667 51.6 31.04 51.6 33.28C51.6 34.64 51.2667 35.8533 50.6 36.92C49.96 37.9867 49.0533 38.8267 47.88 39.44ZM33.76 30.88V37.48H40.2C41.8 37.48 43.0133 37.2 43.84 36.64C44.6667 36.08 45.08 35.2533 45.08 34.16C45.08 33.0667 44.6667 32.2533 43.84 31.72C43.0133 31.16 41.8 30.88 40.2 30.88H33.76ZM41.32 49.12C43.0267 49.12 44.3067 48.84 45.16 48.28C46.04 47.72 46.48 46.8533 46.48 45.68C46.48 43.36 44.76 42.2 41.32 42.2H33.76V49.12H41.32Z" fill="white"/>
</svg>
