<svg width="35" height="35" viewBox="0 0 35 35" fill="none" xmlns="http://www.w3.org/2000/svg">
<path d="M15.3245 11.4631C10.9768 11.4631 7.46997 14.97 7.46997 19.3176C7.46997 23.6653 10.9768 27.1721 15.3245 27.1721C19.6721 27.1721 23.179 23.6653 23.179 19.3176C23.179 14.97 19.6721 11.4631 15.3245 11.4631ZM15.3245 24.4241C12.5149 24.4241 10.218 22.134 10.218 19.3176C10.218 16.5012 12.5081 14.2112 15.3245 14.2112C18.1409 14.2112 20.4309 16.5012 20.4309 19.3176C20.4309 22.134 18.134 24.4241 15.3245 24.4241ZM25.3323 11.1418C25.3323 12.1604 24.512 12.9739 23.5002 12.9739C22.4817 12.9739 21.6682 12.1536 21.6682 11.1418C21.6682 10.1301 22.4885 9.30981 23.5002 9.30981C24.512 9.30981 25.3323 10.1301 25.3323 11.1418ZM30.5344 13.0012C30.4182 10.5471 29.8577 8.37329 28.0598 6.58228C26.2688 4.79126 24.095 4.23071 21.6409 4.10767C19.1116 3.96411 11.5305 3.96411 9.00122 4.10767C6.55396 4.22388 4.38013 4.78442 2.58228 6.57544C0.784424 8.36646 0.230713 10.5403 0.107666 12.9944C-0.0358887 15.5237 -0.0358887 23.1047 0.107666 25.634C0.223877 28.0881 0.784424 30.262 2.58228 32.053C4.38013 33.844 6.54712 34.4045 9.00122 34.5276C11.5305 34.6711 19.1116 34.6711 21.6409 34.5276C24.095 34.4114 26.2688 33.8508 28.0598 32.053C29.8508 30.262 30.4114 28.0881 30.5344 25.634C30.678 23.1047 30.678 15.5305 30.5344 13.0012ZM27.2668 28.3479C26.7336 29.6877 25.7014 30.72 24.3547 31.26C22.3381 32.0598 17.553 31.8752 15.3245 31.8752C13.0959 31.8752 8.30396 32.053 6.29419 31.26C4.95435 30.7268 3.92212 29.6946 3.38208 28.3479C2.58228 26.3313 2.76685 21.5461 2.76685 19.3176C2.76685 17.0891 2.58911 12.2971 3.38208 10.2874C3.91528 8.94751 4.94751 7.91528 6.29419 7.37524C8.31079 6.57544 13.0959 6.76001 15.3245 6.76001C17.553 6.76001 22.345 6.58228 24.3547 7.37524C25.6946 7.90845 26.7268 8.94067 27.2668 10.2874C28.0667 12.304 27.8821 17.0891 27.8821 19.3176C27.8821 21.5461 28.0667 26.3381 27.2668 28.3479Z" fill="white" fill-opacity="0.6"/>
</svg>
